<svg width="18" height="24" viewBox="0 0 18 24" fill="none" xmlns="http://www.w3.org/2000/svg">
<path d="M8.99998 11.4163C10.6108 11.4163 11.9166 10.1105 11.9166 8.49967C11.9166 6.88884 10.6108 5.58301 8.99998 5.58301C7.38915 5.58301 6.08331 6.88884 6.08331 8.49967C6.08331 10.1105 7.38915 11.4163 8.99998 11.4163Z" fill="white"/>
<path d="M8.99998 0.333008C4.48498 0.333008 0.833313 3.98467 0.833313 8.49968C0.833313 14.6247 8.99998 23.6663 8.99998 23.6663C8.99998 23.6663 17.1666 14.6247 17.1666 8.49968C17.1666 3.98467 13.515 0.333008 8.99998 0.333008ZM3.16665 8.49968C3.16665 5.27967 5.77998 2.66634 8.99998 2.66634C12.22 2.66634 14.8333 5.27967 14.8333 8.49968C14.8333 11.8597 11.4733 16.888 8.99998 20.0263C6.57331 16.9113 3.16665 11.8247 3.16665 8.49968Z" fill="white"/>
</svg>
